<svg width="1280" height="512" viewBox="0 0 1280 512" fill="none" xmlns="http://www.w3.org/2000/svg">
<rect width="1280" height="512" fill="#1D1D1F"/>
<path fill-rule="evenodd" clip-rule="evenodd" d="M688.399 313.249C706.947 311.069 721.661 296.355 723.841 277.807C725.408 277.623 727.003 277.528 728.62 277.528C750.988 277.528 769.12 295.66 769.12 318.028C769.12 340.395 750.988 358.528 728.62 358.528C706.252 358.528 688.12 340.395 688.12 318.028C688.12 316.411 688.215 314.816 688.399 313.249V313.249Z" stroke="#EB5757" stroke-width="14"/>
<path fill-rule="evenodd" clip-rule="evenodd" d="M678.841 232.807C660.293 234.987 645.579 249.701 643.399 268.249C641.832 268.433 640.237 268.528 638.62 268.528C616.252 268.528 598.12 250.395 598.12 228.028C598.12 205.66 616.252 187.528 638.62 187.528C660.988 187.528 679.12 205.66 679.12 228.028C679.12 229.645 679.025 231.24 678.841 232.807V232.807Z" stroke="#EB5757" stroke-width="14"/>
<path d="M849.454 267.92C849.454 289.595 843.651 306.235 832.046 317.84C820.611 329.275 804.654 336.784 784.174 340.368C773.251 340.368 764.121 339.344 756.782 337.296C749.614 335.248 743.043 332.773 737.07 329.872V167.824L721.454 169.104L720.43 161.936L757.806 154.256L766.51 154V236.688L802.094 211.6C808.409 211.6 814.467 212.88 820.27 215.44C826.073 218 831.107 221.755 835.374 226.704C839.641 231.483 843.054 237.371 845.614 244.368C848.174 251.195 849.454 259.045 849.454 267.92ZM817.966 278.672C817.966 263.483 815.747 252.048 811.31 244.368C807.043 236.688 801.07 232.848 793.39 232.848C789.806 232.848 786.307 233.616 782.894 235.152C779.651 236.688 776.153 238.736 772.398 241.296L766.51 245.392V321.424C771.118 327.739 778.115 330.896 787.502 330.896C796.377 330.896 803.63 326.373 809.262 317.328C815.065 308.112 817.966 295.227 817.966 278.672Z" fill="white"/>
<path d="M928.581 224.656C925.679 222.949 922.351 222.096 918.597 222.096C914.671 222.096 910.917 223.035 907.333 224.912C903.919 226.789 900.847 229.605 898.117 233.36C895.557 236.944 893.423 241.552 891.717 247.184C890.181 252.816 889.413 259.387 889.413 266.896C889.413 274.235 890.351 281.061 892.229 287.376C894.277 293.52 897.093 298.896 900.677 303.504C904.261 308.112 908.613 311.696 913.733 314.256C918.853 316.816 924.485 318.096 930.629 318.096C936.09 318.096 941.125 317.157 945.733 315.28C950.511 313.403 955.119 310.928 959.557 307.856L962.629 314.256C956.143 319.888 949.487 324.837 942.661 329.104C935.834 333.2 928.069 336.955 919.365 340.368C910.831 340.368 902.981 339.003 895.813 336.272C888.815 333.541 882.671 329.616 877.381 324.496C872.09 319.205 867.994 312.891 865.093 305.552C862.191 298.043 860.741 289.595 860.741 280.208C860.741 270.139 862.447 261.264 865.861 253.584C869.274 245.733 873.882 239.077 879.685 233.616C885.487 227.984 892.143 223.376 899.653 219.792C907.333 216.208 915.269 213.477 923.461 211.6C929.775 211.6 936.346 212.965 943.173 215.696C949.999 218.256 955.631 221.328 960.069 224.912V252.048H936.517L928.581 224.656Z" fill="white"/>
<path d="M1002.87 336.272L973.175 336.784L972.663 329.872L988.279 327.312V227.984L972.151 230.288L971.383 223.12L1009.02 214.416L1017.21 213.904L1017.72 238.224L1059.7 211.6C1066.36 211.771 1071.82 212.539 1076.09 213.904C1080.35 215.099 1083.77 217.147 1086.33 220.048C1089.23 222.949 1091.19 226.704 1092.22 231.312C1093.41 235.749 1094.01 241.808 1094.01 249.488V327.312L1111.16 329.872L1110.39 336.784L1079.67 336.272L1053.05 336.784L1052.54 329.872L1063.8 327.312V250.256C1063.8 243.771 1062.52 239.163 1059.96 236.432C1057.57 233.701 1053.99 232.336 1049.21 232.336C1044.94 232.336 1040.93 233.275 1037.18 235.152C1033.59 237.029 1029.67 239.419 1025.4 242.32L1017.72 246.928V327.312L1029.75 329.872L1028.98 336.784L1002.87 336.272Z" fill="white"/>
<path d="M199.498 218.484H231.498V226.676H199.498V327.284L225.866 329.332L225.354 336.756L183.37 336.244L154.442 336.756L153.93 329.844L170.058 327.284V226.676H151.37V222.58L155.466 217.716H170.058V215.156C170.058 207.476 171.167 200.991 173.386 195.7C175.775 190.409 179.445 185.289 184.394 180.34L209.994 154.74H240.714V177.012H205.642L202.826 181.876C201.461 184.777 200.522 188.276 200.01 192.372C199.669 196.297 199.498 202.271 199.498 210.292V218.484Z" fill="white"/>
<path d="M283.398 336.244L253.446 336.756L252.678 329.844L268.294 327.284V167.796L252.678 169.076L251.91 161.908L289.03 154.228L297.734 153.972V327.284L314.118 329.844L313.35 336.756L283.398 336.244Z" fill="white"/>
<path d="M383.314 211.572C391.677 211.572 399.357 213.108 406.354 216.18C413.351 219.252 419.325 223.519 424.274 228.98C429.394 234.271 433.319 240.756 436.05 248.436C438.951 255.945 440.402 264.137 440.402 273.012C440.402 283.081 438.781 291.956 435.538 299.636C432.466 307.145 428.029 313.631 422.226 319.092C416.423 324.383 409.511 328.82 401.49 332.404C393.639 335.817 384.935 338.463 375.378 340.34C367.186 340.34 359.591 338.804 352.594 335.732C345.767 332.66 339.794 328.479 334.674 323.188C329.725 317.727 325.799 311.241 322.898 303.732C320.167 296.223 318.802 288.031 318.802 279.156C318.802 268.916 320.338 260.041 323.41 252.532C326.653 245.023 331.09 238.623 336.722 233.332C342.525 227.871 349.351 223.433 357.202 220.02C365.223 216.436 373.927 213.62 383.314 211.572ZM350.034 270.452C350.034 279.497 350.802 287.775 352.338 295.284C354.045 302.623 356.349 308.937 359.25 314.228C362.151 319.348 365.565 323.359 369.49 326.26C373.586 328.991 377.938 330.356 382.546 330.356C391.079 330.356 397.565 326.175 402.002 317.812C406.439 309.279 408.658 297.247 408.658 281.716C408.658 262.26 405.586 247.412 399.442 237.172C393.298 226.932 385.618 221.812 376.402 221.812C367.698 221.812 361.127 226.079 356.69 234.612C352.253 242.975 350.034 254.921 350.034 270.452Z" fill="white"/>
<path d="M517.992 228.98C515.432 226.591 512.445 224.713 509.032 223.348C505.789 221.812 501.949 221.044 497.512 221.044C492.221 221.044 487.869 222.409 484.456 225.14C481.213 227.871 479.592 231.54 479.592 236.148C479.592 240.585 481.128 244.255 484.2 247.156C487.272 250.057 491.965 253.3 498.28 256.884L519.528 269.172C527.379 273.609 533.011 278.303 536.424 283.252C540.008 288.031 541.715 294.004 541.544 301.172C541.544 311.583 537.533 319.86 529.512 326.004C521.661 332.148 509.971 336.927 494.44 340.34C490.856 340.34 487.101 339.999 483.176 339.316C479.421 338.804 475.752 338.036 472.168 337.012C468.584 335.988 465.171 334.879 461.928 333.684C458.856 332.319 456.211 331.039 453.992 329.844L451.432 295.796H461.16L472.424 320.372C475.837 323.273 479.421 325.748 483.176 327.796C486.931 329.673 491.112 330.612 495.72 330.612C502.205 330.612 507.069 328.991 510.312 325.748C513.725 322.335 515.432 318.324 515.432 313.716C515.432 311.156 515.091 308.937 514.408 307.06C513.725 305.012 512.616 303.22 511.08 301.684C509.544 299.977 507.581 298.356 505.192 296.82C502.803 295.113 499.987 293.236 496.744 291.188L475.496 278.9C469.864 275.657 464.829 271.732 460.392 267.124C456.125 262.345 453.992 256.116 453.992 248.436C453.992 239.391 457.661 231.967 465 226.164C472.339 220.361 483.773 215.497 499.304 211.572C508.008 211.572 515.432 212.596 521.576 214.644C527.72 216.692 533.011 218.911 537.448 221.3V252.788H528.744L517.992 228.98Z" fill="white"/>
<path d="M616.372 228.98C613.812 226.591 610.825 224.713 607.412 223.348C604.169 221.812 600.329 221.044 595.892 221.044C590.601 221.044 586.249 222.409 582.836 225.14C579.593 227.871 577.972 231.54 577.972 236.148C577.972 240.585 579.508 244.255 582.58 247.156C585.652 250.057 590.345 253.3 596.66 256.884L617.908 269.172C625.759 273.609 631.391 278.303 634.804 283.252C638.388 288.031 640.095 294.004 639.924 301.172C639.924 311.583 635.913 319.86 627.892 326.004C620.041 332.148 608.351 336.927 592.82 340.34C589.236 340.34 585.481 339.999 581.556 339.316C577.801 338.804 574.132 338.036 570.548 337.012C566.964 335.988 563.551 334.879 560.308 333.684C557.236 332.319 554.591 331.039 552.372 329.844L549.812 295.796H559.54L570.804 320.372C574.217 323.273 577.801 325.748 581.556 327.796C585.311 329.673 589.492 330.612 594.1 330.612C600.585 330.612 605.449 328.991 608.692 325.748C612.105 322.335 613.812 318.324 613.812 313.716C613.812 311.156 613.471 308.937 612.788 307.06C612.105 305.012 610.996 303.22 609.46 301.684C607.924 299.977 605.961 298.356 603.572 296.82C601.183 295.113 598.367 293.236 595.124 291.188L573.876 278.9C568.244 275.657 563.209 271.732 558.772 267.124C554.505 262.345 552.372 256.116 552.372 248.436C552.372 239.391 556.041 231.967 563.38 226.164C570.719 220.361 582.153 215.497 597.684 211.572C606.388 211.572 613.812 212.596 619.956 214.644C626.1 216.692 631.391 218.911 635.828 221.3V252.788H627.124L616.372 228.98Z" fill="white"/>
<path fill-rule="evenodd" clip-rule="evenodd" d="M643.399 277.807C645.579 296.355 660.293 311.069 678.841 313.249C679.025 314.816 679.12 316.411 679.12 318.028C679.12 340.395 660.988 358.528 638.62 358.528C616.252 358.528 598.12 340.395 598.12 318.028C598.12 295.66 616.252 277.528 638.62 277.528C640.237 277.528 641.832 277.623 643.399 277.807V277.807Z" stroke="#EB5757" stroke-width="14"/>
<path fill-rule="evenodd" clip-rule="evenodd" d="M723.841 268.249C721.661 249.701 706.947 234.987 688.399 232.807C688.215 231.24 688.12 229.645 688.12 228.028C688.12 205.66 706.252 187.528 728.62 187.528C750.988 187.528 769.12 205.66 769.12 228.028C769.12 250.395 750.988 268.528 728.62 268.528C727.003 268.528 725.408 268.433 723.841 268.249V268.249Z" stroke="#EB5757" stroke-width="14"/>
<circle cx="683.62" cy="273.028" r="40.5" stroke="#EB5757" stroke-width="14"/>
</svg>
